<?xml version="1.0" ?><svg style="enable-background:new 0 0 24 24;" version="1.1" viewBox="0 0 24 24" xml:space="preserve" xmlns="http://www.w3.org/2000/svg" xmlns:xlink="http://www.w3.org/1999/xlink"><style type="text/css">
	.st0{display:none;}
</style><g class="st0" id="grid"/><g id="icon"><path d="M0.5,24c0.044,0,0.089-0.006,0.133-0.018l5.146-1.419c0.008-0.002,0.012-0.009,0.02-0.012   C5.872,22.528,5.942,22.493,6,22.435l0.002-0.002c0,0,0,0,0,0L23.643,4.791c0.474-0.474,0.474-1.244,0-1.717l-2.717-2.717   c-0.474-0.474-1.244-0.475-1.717,0L1.568,17.998c0,0,0,0,0,0L1.565,18c-0.058,0.058-0.093,0.128-0.117,0.201   c-0.002,0.008-0.01,0.012-0.012,0.02l-1.419,5.146c-0.048,0.173,0.001,0.359,0.128,0.486C0.242,23.949,0.369,24,0.5,24z    M5.646,21.374L4.49,20.218L20.068,4.639l1.156,1.156L5.646,21.374z M19.916,1.064c0.11-0.11,0.194-0.109,0.303,0l2.717,2.717   c0.055,0.055,0.063,0.118,0.063,0.152c0,0.033-0.008,0.097-0.063,0.151l-1.005,1.005l-3.02-3.02L19.916,1.064z M18.204,2.776   l1.156,1.156L3.782,19.51l-1.156-1.156L18.204,2.776z M2.173,19.315l2.512,2.512l-3.469,0.957L2.173,19.315z"/></g></svg>